<svg xmlns="http://www.w3.org/2000/svg" width="512" height="512" viewBox="0 0 512 512">
  <defs>
    <radialGradient id="g" cx="30%" cy="22%" r="58%">
      <stop offset="0%" stop-color="#7B6EF6" stop-opacity="0.2"/>
      <stop offset="100%" stop-color="#7B6EF6" stop-opacity="0"/>
    </radialGradient>
    <style>
      @keyframes fl1 { 0%,100%{transform:translateY(0)} 50%{transform:translateY(-26.7px)} }
      @keyframes fl2 { 0%,100%{transform:translateY(0)} 50%{transform:translateY(-26.7px)} }
      @keyframes fl3 { 0%,100%{transform:translateY(0)} 50%{transform:translateY(-26.7px)} }
      .l1 { animation:fl1 2.4s ease-in-out infinite; }
      .l2 { animation:fl2 2.4s ease-in-out infinite .32s; }
      .l3 { animation:fl3 2.4s ease-in-out infinite .64s; }
    </style>
  </defs>
  <rect width="512" height="512" rx="112" fill="#0a0916"/>
  <rect width="512" height="512" rx="112" fill="url(#g)"/>
  <rect width="512" height="512" rx="112" fill="none" stroke="rgba(123,110,246,0.22)" stroke-width="5.6"/>
  <g transform="translate(90.5,117.5)">
    <svg width="331" height="277" viewBox="0 0 331 277" overflow="visible">
    <g class="l1"><polygon points="165.3,16.0 304.0,80.0 165.3,144.0 26.7,80.0" fill="white" opacity="0.92"/></g>
    <line x1="26.7" y1="80.0" x2="26.7" y2="133.3" stroke="rgba(255,255,255,0.18)" stroke-width="7.5"/>
    <line x1="304.0" y1="80.0" x2="304.0" y2="133.3" stroke="rgba(255,255,255,0.18)" stroke-width="7.5"/>
    <line x1="165.3" y1="144.0" x2="165.3" y2="192.0" stroke="rgba(123,110,246,0.35)" stroke-width="7.5"/>
    <g class="l2">
      <line x1="26.7" y1="133.3" x2="165.3" y2="192.0" stroke="#9E94F9" stroke-width="11.2" stroke-linecap="round" opacity="0.68"/>
      <line x1="165.3" y1="192.0" x2="304.0" y2="133.3" stroke="#9E94F9" stroke-width="11.2" stroke-linecap="round" opacity="0.68"/>
    </g>
    <line x1="26.7" y1="133.3" x2="26.7" y2="186.7" stroke="rgba(123,110,246,0.28)" stroke-width="7.5"/>
    <line x1="304.0" y1="133.3" x2="304.0" y2="186.7" stroke="rgba(123,110,246,0.28)" stroke-width="7.5"/>
    <line x1="165.3" y1="192.0" x2="165.3" y2="250.7" stroke="rgba(123,110,246,0.45)" stroke-width="7.5"/>
    <g class="l3">
      <line x1="26.7" y1="186.7" x2="165.3" y2="250.7" stroke="#7B6EF6" stroke-width="13.9" stroke-linecap="round"/>
      <line x1="165.3" y1="250.7" x2="304.0" y2="186.7" stroke="#7B6EF6" stroke-width="13.9" stroke-linecap="round"/>
    </g>
    </svg>
  </g>
</svg>